<?xml version="1.0" encoding="utf-8"?>
<!-- Generator: Adobe Illustrator 27.2.0, SVG Export Plug-In . SVG Version: 6.00 Build 0)  -->
<svg version="1.1" id="Layer_1" xmlns="http://www.w3.org/2000/svg" xmlns:xlink="http://www.w3.org/1999/xlink" x="0px" y="0px"
	 viewBox="0 0 110 110" style="enable-background:new 0 0 110 110;" xml:space="preserve">
<style type="text/css">
	.st0{fill:#FFFFFF;}
	.st1{fill:#EFC930;}
	.st2{fill:#D32027;}
</style>
<circle class="st0" cx="55" cy="55" r="45.9"/>
<g>
	<path d="M55,7.4c26.3,0,47.6,21.4,47.6,47.6S81.3,102.6,55,102.6S7.4,81.3,7.4,55S28.7,7.4,55,7.4 M55,1.9
		C25.6,1.9,1.9,25.6,1.9,55S25.6,108,55,108S108,84.3,108,55S84.3,1.9,55,1.9L55,1.9z"/>
</g>
<g>
	<path d="M55,28.3c14.7,0,26.7,12,26.7,26.7S69.7,81.7,55,81.7S28.3,69.7,28.3,55S40.3,28.3,55,28.3 M55,23.3
		c-17.5,0-31.7,14.2-31.7,31.7S37.5,86.7,55,86.7S86.7,72.5,86.7,55S72.5,23.3,55,23.3L55,23.3z"/>
</g>
<g>
	<circle class="st1" cx="28.7" cy="55" r="12.4"/>
	<path d="M28.7,45.1c5.5,0,9.9,4.5,9.9,9.9s-4.5,9.9-9.9,9.9s-9.9-4.5-9.9-9.9S23.3,45.1,28.7,45.1 M28.7,40.1
		c-8.2,0-14.9,6.7-14.9,14.9s6.7,14.9,14.9,14.9S43.6,63.2,43.6,55S37,40.1,28.7,40.1L28.7,40.1z"/>
</g>
<g>
	<path class="st1" d="M55,41.8c-6.8,0-12.4-5.6-12.4-12.4S48.2,17,55,17s12.4,5.6,12.4,12.4S61.8,41.8,55,41.8z"/>
	<g>
		<path d="M55,19.4c5.5,0,9.9,4.4,9.9,9.9s-4.5,9.9-9.9,9.9s-9.9-4.5-9.9-9.9S49.5,19.4,55,19.4 M55,14.4c-8.2,0-14.9,6.7-14.9,14.9
			s6.7,15,14.9,15s14.9-6.7,14.9-14.9S63.2,14.4,55,14.4L55,14.4z"/>
	</g>
</g>
<g>
	<circle class="st2" cx="55" cy="80.6" r="12.4"/>
	<path d="M55,70.7c5.5,0,9.9,4.4,9.9,9.9s-4.5,9.9-9.9,9.9s-9.9-4.4-9.9-9.9S49.5,70.7,55,70.7 M55,65.7c-8.2,0-14.9,6.7-14.9,14.9
		s6.7,15,14.9,15s14.9-6.7,14.9-14.9S63.2,65.7,55,65.7L55,65.7z"/>
</g>
<g>
	<circle class="st2" cx="81.7" cy="55" r="12.4"/>
	<path d="M81.7,45.1c5.5,0,9.9,4.5,9.9,9.9s-4.4,9.9-9.9,9.9s-9.9-4.5-9.9-9.9S76.2,45.1,81.7,45.1 M81.7,40.1
		c-8.2,0-14.9,6.7-14.9,14.9s6.7,14.9,14.9,14.9S96.6,63.2,96.6,55S89.9,40.1,81.7,40.1L81.7,40.1z"/>
</g>
<circle cx="55" cy="55" r="8.1"/>
</svg>
