<?xml version="1.0" encoding="utf-8"?>
<!-- Generator: Adobe Illustrator 27.2.0, SVG Export Plug-In . SVG Version: 6.00 Build 0)  -->
<svg version="1.1" id="Layer_1" xmlns="http://www.w3.org/2000/svg" xmlns:xlink="http://www.w3.org/1999/xlink" x="0px" y="0px"
	 viewBox="0 0 800 800" style="enable-background:new 0 0 800 800;" xml:space="preserve">
	<g>
		<path d="M100,725.5c-2.2,0-4.4-0.3-6.6-0.9c-13.3-3.7-21.1-17.4-17.5-30.7l26.3-95.8c21.9-79.7,62.8-145.7,118.3-190.9
			c26.1-21.3,55-37.7,85.8-48.7c30.2-10.8,61.7-16.3,93.6-16.3c13.8,0,25,11.2,25,25s-11.2,25-25,25c-115,0-213,86-249.6,219.2
			L124,707.2C121.1,718.3,111,725.5,100,725.5z"/>
	</g>

	<g>
		<path d="M400,391.1c-105.7,0-191.7-86-191.7-191.7S294.3,7.8,400,7.8s191.7,86,191.7,191.7S505.7,391.1,400,391.1z M400,57.8
			c-78.1,0-141.7,63.6-141.7,141.7S321.9,341.1,400,341.1s141.7-63.6,141.7-141.7S478.1,57.8,400,57.8z"/>
	</g>

	<g>
		<path d="M566.7,791.7C461,791.7,375,705.7,375,600s86-191.7,191.7-191.7s191.7,86,191.7,191.7S672.4,791.7,566.7,791.7z
			M566.7,458.3C488.6,458.3,425,521.9,425,600s63.6,141.7,141.7,141.7S708.4,678.1,708.4,600S644.8,458.3,566.7,458.3z"/>
	</g>

	<path class="accent" d="M593.6,606.9l43.8-55.1c6.9-8.7,5.5-21.2-3.2-28.1c-8.7-6.9-21.2-5.5-28.1,3.2l-38,47.9l-38-48c-6.9-8.6-19.4-10.1-28.1-3.2
		c-8.6,6.9-10.1,19.4-3.2,28.1l43.8,55.3l-43.8,55.2c-6.9,8.7-5.5,21.2,3.2,28.1c3.7,2.9,8,4.3,12.4,4.3c5.9,0,11.8-2.6,15.7-7.6
		l38-47.9l38,47.9c4,5,9.8,7.6,15.7,7.6c4.3,0,8.7-1.4,12.4-4.4c8.6-6.9,10.1-19.4,3.2-28.1L593.6,606.9z"/>
</svg>
