<?xml version="1.0" encoding="utf-8"?>
<!-- Generator: Adobe Illustrator 27.2.0, SVG Export Plug-In . SVG Version: 6.00 Build 0)  -->
<svg fill="#fff" version="1.1" xmlns="http://www.w3.org/2000/svg" xmlns:xlink="http://www.w3.org/1999/xlink" x="0px" y="0px"
	 viewBox="0 0 800 800" style="enable-background:new 0 0 800 800;" xml:space="preserve">
<path d="M6.1,147.6v574.3c0,42.7,34.8,77.5,77.5,77.5h632.9c42.7,0,77.5-34.8,77.5-77.5V147.6
	c0-42.7-34.8-77.5-77.5-77.5h-79.8V29.2c0-15.8-12.8-28.6-28.6-28.6s-28.6,12.8-28.6,28.6V70H220.4V29.2c0-15.8-12.8-28.6-28.6-28.6
	s-28.6,12.8-28.6,28.6V70H83.6C40.8,70.1,6.1,104.8,6.1,147.6z M736.8,721.8c0,11.3-9.1,20.4-20.4,20.4H83.6
	c-11.3,0-20.4-9.1-20.4-20.4V276.5h673.7L736.8,721.8L736.8,721.8z M191.9,188.3c15.8,0,28.6-12.8,28.6-28.6v-32.6h359.1v32.6
	c0,15.8,12.8,28.6,28.6,28.6s28.6-12.8,28.6-28.6v-32.6h79.8c11.3,0,20.4,9.1,20.4,20.4v71.8H63.2v-71.8c0-11.3,9.1-20.4,20.4-20.4
	h79.8v32.6C163.3,175.5,176.1,188.3,191.9,188.3z"/>
<path d="M503,334.4c-12-6.8-27.3-2.6-34.1,9.4l-67.1,118.3L331,337.5c-6.8-12-22.1-16.2-34.1-9.4
	c-12,6.8-16.2,22.1-9.4,34.1l87.4,154v145.8c0,13.8,11.2,25,25,25c13.8,0,25-11.2,25-25V522.5l87.4-154.1
	C519.3,356.4,515,341.2,503,334.4z"/>
</svg>
