<?xml version="1.0" encoding="iso-8859-1"?>
<!-- Uploaded to: SVG Repo, www.svgrepo.com, Generator: SVG Repo Mixer Tools -->
<!DOCTYPE svg PUBLIC "-//W3C//DTD SVG 1.1//EN" "http://www.w3.org/Graphics/SVG/1.1/DTD/svg11.dtd">
<svg fill="#fff" version="1.1" xmlns="http://www.w3.org/2000/svg" xmlns:xlink="http://www.w3.org/1999/xlink"
	 width="800px" height="800px" viewBox="0 0 600.113 600.113"
	 xml:space="preserve">
	<path d="M4.549,110.703v430.77c0,32.059,26.082,58.141,58.14,58.141h474.737c32.057,0,58.139-26.082,58.139-58.141v-430.77
		c0-32.059-26.082-58.14-58.139-58.14h-59.838V21.92c0-11.83-9.59-21.42-21.42-21.42s-21.42,9.59-21.42,21.42v30.642H165.366
		V21.92c0-11.83-9.59-21.42-21.42-21.42s-21.42,9.59-21.42,21.42v30.642H62.689C30.63,52.563,4.549,78.645,4.549,110.703z
			M552.725,541.473c0,8.449-6.85,15.301-15.299,15.301H62.688c-8.45,0-15.3-6.852-15.3-15.301V207.399h505.336V541.473
		L552.725,541.473z M143.946,141.266c11.83,0,21.42-9.59,21.42-21.42V95.403h269.382v24.443c0,11.83,9.59,21.42,21.42,21.42
		s21.42-9.59,21.42-21.42V95.403h59.838c8.449,0,15.299,6.85,15.299,15.3v53.856H47.389v-53.856c0-8.451,6.85-15.3,15.3-15.3
		h59.836v24.443C122.526,131.676,132.115,141.266,143.946,141.266z"/>
	<path d="M157.429,308.062c2.065,0,4.167-0.301,6.246-0.934l10.98-3.342v184.289c0,11.83,9.59,21.42,21.42,21.42
		s21.42-9.59,21.42-21.42V275.182v-0.307c0-0.142-0.008-0.282-0.011-0.423c-0.004-0.201-0.005-0.401-0.015-0.603
		c-0.018-0.375-0.044-0.749-0.082-1.119c-0.01-0.098-0.023-0.196-0.035-0.294c-0.027-0.238-0.056-0.476-0.091-0.711
		c-0.036-0.242-0.079-0.482-0.124-0.724c-0.017-0.092-0.031-0.185-0.049-0.276c-0.09-0.454-0.201-0.907-0.321-1.359
		c-0.042-0.157-0.084-0.312-0.129-0.467c-0.025-0.087-0.046-0.173-0.072-0.26c-0.083-0.274-0.176-0.543-0.27-0.812
		c-0.06-0.172-0.123-0.343-0.187-0.514c-0.126-0.336-0.261-0.667-0.402-0.993c-0.065-0.149-0.131-0.297-0.2-0.445
		c-0.192-0.416-0.392-0.827-0.607-1.224c-1.157-2.134-2.65-4.014-4.389-5.597c-0.015-0.013-0.028-0.027-0.043-0.04
		c-0.197-0.179-0.4-0.351-0.604-0.523c-0.068-0.058-0.135-0.117-0.204-0.173c-0.151-0.125-0.307-0.242-0.462-0.364
		c-0.127-0.098-0.252-0.199-0.382-0.294c-0.099-0.073-0.201-0.143-0.302-0.214c-0.189-0.136-0.379-0.271-0.574-0.4
		c-0.043-0.028-0.086-0.055-0.129-0.083c-2.229-1.463-4.744-2.525-7.447-3.074c-0.443-0.09-0.892-0.162-1.345-0.224
		c-0.16-0.022-0.321-0.042-0.482-0.061c-0.357-0.041-0.718-0.074-1.081-0.096c-0.172-0.012-0.345-0.021-0.518-0.028
		c-0.287-0.012-0.575-0.022-0.865-0.022c-0.092,0-0.182,0.006-0.274,0.007c-0.16,0.002-0.32,0.006-0.48,0.012
		c-0.467,0.016-0.933,0.042-1.392,0.088c-0.096,0.01-0.193,0.024-0.289,0.035c-0.24,0.028-0.48,0.057-0.718,0.091
		c-0.236,0.036-0.472,0.077-0.708,0.121c-0.098,0.018-0.196,0.034-0.294,0.053c-0.365,0.072-0.73,0.156-1.095,0.248
		c-0.192,0.048-0.38,0.105-0.57,0.158c-0.139,0.039-0.278,0.073-0.417,0.116l-0.288,0.088l-38.35,11.674
		c-11.317,3.446-17.699,15.413-14.254,26.73C139.757,302.113,148.248,308.062,157.429,308.062z"/>
	<path d="M326.17,498.689c13.744,7.172,28.396,10.807,43.549,10.807s29.805-3.635,43.549-10.807
		c12.902-6.73,24.41-16.268,34.203-28.346c19.406-23.938,30.094-55.498,30.094-88.867c0-33.371-10.688-64.932-30.094-88.869
		c-9.793-12.077-21.301-21.615-34.203-28.346c-13.744-7.171-28.396-10.806-43.549-10.806s-29.805,3.635-43.549,10.806
		c-12.902,6.731-24.41,16.269-34.203,28.346c-19.407,23.937-30.095,55.498-30.095,88.869c0,33.369,10.688,64.93,30.095,88.867
		C301.76,482.422,313.266,491.959,326.17,498.689z M325.244,319.588c12.178-15.02,27.973-23.293,44.475-23.293
		s32.297,8.273,44.475,23.293c13.24,16.332,20.533,38.311,20.533,61.889c0,23.576-7.293,45.557-20.533,61.887
		c-12.178,15.021-27.973,23.293-44.475,23.293s-32.297-8.271-44.475-23.293c-13.24-16.33-20.531-38.311-20.531-61.887
		C304.713,357.898,312.004,335.92,325.244,319.588z"/>
</svg>