<?xml version="1.0" encoding="iso-8859-1"?>
<!-- Uploaded to: SVG Repo, www.svgrepo.com, Generator: SVG Repo Mixer Tools -->
<!DOCTYPE svg PUBLIC "-//W3C//DTD SVG 1.1//EN" "http://www.w3.org/Graphics/SVG/1.1/DTD/svg11.dtd">
<svg version="1.1" xmlns="http://www.w3.org/2000/svg" xmlns:xlink="http://www.w3.org/1999/xlink"
	 width="800px" height="800px" viewBox="0 0 602 600"
	 xml:space="preserve">
		<path d="M8.318,537.591c4.938,8.553,12.004,15.75,20.437,20.818c9.014,5.416,19.374,8.277,29.96,8.277h482.071
			c10.587,0,20.947-2.861,29.961-8.277c8.432-5.068,15.499-12.266,20.437-20.818s7.639-18.271,7.811-28.107
			c0.184-10.514-2.518-20.918-7.812-30.086L350.147,61.913c-5.293-9.168-12.952-16.709-22.149-21.808
			c-8.604-4.769-18.372-7.29-28.247-7.29s-19.643,2.521-28.247,7.29c-9.197,5.097-16.857,12.639-22.15,21.808L8.319,479.398
			c-5.293,9.168-7.994,19.572-7.81,30.086C0.681,519.32,3.381,529.039,8.318,537.591z M45.419,500.818L286.454,83.333
			c2.955-5.118,8.125-7.677,13.296-7.677c5.17,0,10.341,2.559,13.296,7.677l241.035,417.485
			c5.909,10.236-1.478,23.029-13.297,23.029H58.716C46.896,523.847,39.51,511.054,45.419,500.818z"/>
		<path class="accent" d="M239.735,440.976c0,33.094,26.923,60.016,60.016,60.016s60.016-26.922,60.016-60.016c0-14.932-5.482-28.605-14.538-39.119
			c10.082-10.99,16.245-25.631,16.245-41.686V234.286c0-34.034-27.688-61.723-61.723-61.723s-61.723,27.689-61.723,61.723v125.885
			c0,16.055,6.164,30.695,16.246,41.686C245.217,412.371,239.735,426.044,239.735,440.976z M299.751,458.152
			c-9.486,0-17.176-7.689-17.176-17.176s7.69-17.176,17.176-17.176c9.486,0,17.176,7.689,17.176,17.176
			S309.237,458.152,299.751,458.152z M280.868,234.286c0-10.429,8.454-18.882,18.883-18.882s18.883,8.454,18.883,18.882v125.885
			c0,10.428-8.454,18.883-18.883,18.883s-18.883-8.455-18.883-18.883V234.286z"/>
</svg>