<?xml version="1.0" encoding="utf-8"?>
<!-- Generator: Adobe Illustrator 27.2.0, SVG Export Plug-In . SVG Version: 6.00 Build 0)  -->
<svg version="1.1" xmlns="http://www.w3.org/2000/svg" xmlns:xlink="http://www.w3.org/1999/xlink" x="0px" y="0px"
	 viewBox="0 0 800 800" style="enable-background:new 0 0 800 800;" xml:space="preserve">
	<g>
		<path class="heart-fill" fill="#111" d="M400,683.3c-15,0-31.4-5.3-50.2-16.3c-17.5-10.3-35.4-24.3-51.1-36.7c-9-7.1-18.6-14.4-27.8-21.6
			c-41.1-31.7-87.7-67.5-125-109.6c-25.1-28.3-43.7-56.5-56.8-86.3C74,378.6,66.7,343.1,66.7,304.6c0-78.6,43.3-149.2,110.4-179.8
			c22.2-10.1,45.6-15.3,69.6-15.3c47.1,0,94.4,20,136.6,57.8c4.7,4.2,10.7,6.4,16.7,6.4s11.9-2.1,16.7-6.4
			c42.3-37.8,89.5-57.8,136.6-57.8c24,0,47.5,5.1,69.6,15.3C690,155.4,733.3,226,733.3,304.6c0,38.5-7.3,74-22.5,108.4
			c-13.1,29.7-31.6,58-56.8,86.3c-37.3,42-83.9,77.9-125,109.6c-9.2,7.1-18.8,14.4-27.8,21.6c-15.7,12.4-33.6,26.5-51.1,36.7
			C431.4,678,415,683.3,400,683.3z"/>

		<path class="heart-stroke" fill="#fff" d="M553.3,134.5c20.4,0,40.3,4.4,59.2,13c27.8,12.7,51.5,33.8,68.6,61.1c17.8,28.3,27.2,61.5,27.2,96
			c0,35-6.7,67.2-20.4,98.4c-12,27.3-29.2,53.4-52.6,79.7C599.6,522.9,554,558,513.8,589c-9.2,7.1-18.8,14.5-28,21.7
			c-15.1,11.9-32.2,25.4-48.3,34.8c-14.8,8.6-27.1,12.8-37.5,12.8s-22.8-4.2-37.5-12.8c-16-9.4-33.2-22.9-48.3-34.8
			c-9.2-7.2-18.7-14.6-28-21.7c-40.2-31-85.8-66.1-121.6-106.3c-23.4-26.3-40.6-52.4-52.6-79.7c-13.7-31.2-20.4-63.4-20.4-98.4
			c0-34.4,9.4-67.6,27.2-96c17.1-27.3,40.8-48.4,68.6-61.1c18.9-8.6,38.8-13,59.2-13c40.9,0,82.4,17.8,120,51.4
			c9.5,8.5,21.4,12.7,33.3,12.7c11.9,0,23.8-4.2,33.3-12.7C470.9,152.3,512.4,134.5,553.3,134.5 M553.3,84.5
			c-50.4,0-103.8,19.8-153.3,64.2c-49.6-44.3-102.9-64.1-153.3-64.2c-28,0-55,6.1-80,17.5c-73.9,33.8-125,112.2-125,202.6
			c0,88.8,37,156.6,85.6,211.3c38.9,43.8,86.5,80.4,128.5,112.8c9.5,7.3,18.8,14.4,27.6,21.4c17.1,13.5,35.4,27.8,54,38.7
			c18.6,10.8,39.8,19.7,62.8,19.7s44.2-8.8,62.8-19.7c18.6-10.9,36.9-25.2,54-38.7c8.8-6.9,18-14,27.6-21.4
			c42-32.4,89.6-69,128.5-112.8c48.5-54.7,85.6-122.4,85.6-211.3c0-90.4-51.2-168.8-125-202.6C608.3,90.6,581.3,84.5,553.3,84.5
			L553.3,84.5z"/>
	</g>
</svg>
