<?xml version="1.0" encoding="utf-8"?>
<!-- Generator: Adobe Illustrator 27.2.0, SVG Export Plug-In . SVG Version: 6.00 Build 0)  -->
<svg version="1.1" xmlns="http://www.w3.org/2000/svg" xmlns:xlink="http://www.w3.org/1999/xlink" x="0px" y="0px" width="32px" height="32px"
	 viewBox="0 0 32 32" xml:space="preserve">
	<path fill="transparent" stroke="currentColor" stroke-width="2px" d="M9,15.1V21c0,1.4,1.2,2.7,2.7,2.7l0,0l0.4,3.8c0.2,1.3,1.3,2.3,2.7,2.3h2.5c1.3,0,2.5-1.1,2.7-2.3l0.4-3.8l0,0
		c1.4,0,2.7-1.2,2.7-2.7v-5.8c0-1.4-1.2-2.7-2.7-2.7h-8.7C10.2,12.5,9,13.7,9,15.1z"/>
	<path fill="transparent" stroke="currentColor" stroke-width="2px" d="M12.8,9.9c0.4,0.4,0.9,0.8,1.4,1c0.5,0.3,1.2,0.4,1.7,0.4c0.6,0,1.2-0.1,1.7-0.4c0.5-0.3,1.1-0.5,1.4-1
		c0.4-0.4,0.8-0.9,1-1.4c0.4-0.5,0.4-1.2,0.4-1.8S20.3,5.5,20.1,5c-0.3-0.4-0.4-1-0.9-1.4c-0.4-0.4-0.9-0.8-1.4-1
		c-0.5-0.2-1.2-0.4-1.7-0.4c-0.6,0-1.2,0.1-1.7,0.4c-0.5,0.3-1.1,0.5-1.4,1C12.5,4,12.2,4.5,12,5c-0.4,0.5-0.4,1.2-0.4,1.7
		s0.1,1.2,0.4,1.7C12.1,9.1,12.4,9.5,12.8,9.9z"/>
</svg>
