<svg version="1.1" id="Capa_1" xmlns="http://www.w3.org/2000/svg" xmlns:xlink="http://www.w3.org/1999/xlink"
	 width="32px" height="32px" viewBox="0 0 600.305 600.306">
		<path fill="currentColor" d="M147.092,280.833v127.662c0,32.059,26.082,58.141,58.14,58.141h0.289l9.324,81.628
			c3.357,29.384,28.19,51.542,57.764,51.542h55.087c29.574,0,54.408-22.158,57.766-51.542l9.322-81.628h0.289
			c32.059,0,58.141-26.082,58.141-58.141V280.833c0-32.059-26.082-58.14-58.141-58.14H205.232
			C173.174,222.693,147.092,248.775,147.092,280.833z M189.932,280.833c0-8.45,6.85-15.3,15.3-15.3h189.843
			c8.449,0,15.299,6.85,15.299,15.3v127.662c0,8.45-6.85,15.3-15.299,15.3h-24.961c-8.451,0-15.301,6.851-15.301,15.301
			l-11.914,104.306c-0.883,7.728-7.424,13.564-15.201,13.564H272.61c-7.778,0-14.318-5.837-15.201-13.564l-11.914-104.306
			c0-8.45-6.85-15.301-15.3-15.301h-24.963c-8.45,0-15.3-6.85-15.3-15.3V280.833z"/>
		<path fill="currentColor" d="M230.874,167.756c8.984,8.984,19.458,16.043,31.13,20.979c12.106,5.121,24.942,7.717,38.149,7.717
			c13.208,0,26.042-2.596,38.15-7.717c11.672-4.937,22.146-11.995,31.129-20.979c8.984-8.984,16.043-19.457,20.98-31.129
			c5.121-12.106,7.717-24.942,7.717-38.149s-2.596-26.043-7.717-38.15c-4.938-11.672-11.996-22.146-20.98-31.129
			c-8.982-8.984-19.457-16.043-31.129-20.979C326.196,3.097,313.362,0.5,300.153,0.5c-13.208,0-26.043,2.596-38.149,7.717
			c-11.672,4.937-22.146,11.995-31.13,20.979c-8.984,8.984-16.042,19.458-20.979,31.129c-5.121,12.106-7.717,24.942-7.717,38.149
			c0,13.208,2.596,26.043,7.717,38.15C214.831,148.298,221.89,158.772,230.874,167.756z M300.153,43.34
			c30.451,0,55.136,24.685,55.136,55.137c0,30.451-24.686,55.136-55.136,55.136s-55.136-24.685-55.136-55.136
			C245.017,68.025,269.703,43.34,300.153,43.34z"/>
</svg>