<?xml version="1.0" encoding="utf-8"?>
<!-- Generator: Adobe Illustrator 27.2.0, SVG Export Plug-In . SVG Version: 6.00 Build 0)  -->
<svg fill="#fff" version="1.1" id="Layer_1" xmlns="http://www.w3.org/2000/svg" xmlns:xlink="http://www.w3.org/1999/xlink" x="0px" y="0px"
	 viewBox="0 0 800.5 800.5" style="enable-background:new 0 0 800.5 800.5;" xml:space="preserve">
	<path class="st0" d="M596.9,469.5c5.4-9.7,10.3-19.7,14.6-30c16.5-38.9,24.8-80.3,24.8-122.9s-8.4-83.9-24.8-122.9
		c-15.9-37.6-38.6-71.3-67.6-100.3s-62.7-51.7-100.3-67.6C404.7,9.3,363.3,1,320.7,1s-83.9,8.3-122.8,24.8
		c-37.6,15.9-71.4,38.7-100.3,67.6c-29,29-51.7,62.7-67.6,100.3C13.5,232.7,5.1,274,5.1,316.6s8.4,83.9,24.8,122.9
		c15.9,37.6,38.6,71.3,67.6,100.3c29,29,62.7,51.7,100.3,67.6c38.9,16.5,80.3,24.8,122.9,24.8s83.9-8.4,122.9-24.8
		c6.5-2.8,12.9-5.7,19.2-8.9l176.9,176.8c15.7,15.7,36.5,24.3,58.7,24.3s43-8.6,58.6-24.3l14.3-14.3c32.3-32.3,32.3-85,0-117.3
		L596.9,469.5z M471.7,525.6c-16.2,11.7-33.8,21.6-52.5,29.3c-30.4,12.6-63.6,19.5-98.5,19.5C178.3,574.4,62.9,459,62.9,316.6
		S178.4,58.8,320.7,58.8s257.8,115.4,257.8,257.8c0,39.3-8.8,76.6-24.6,109.9c-8.5,18-19.1,35-31.4,50.4
		C507.9,495.4,490.8,511.8,471.7,525.6z M730.3,720.2L716,734.5c-4.9,4.9-11.3,7.4-17.8,7.4c-6.4,0-12.9-2.5-17.8-7.4L513,566.9
		c10.8-8.3,21.1-17.4,30.9-27.1c7-7,13.6-14.2,19.8-21.7l166.6,166.6C740.2,694.5,740.2,710.4,730.3,720.2z"/>
	<path class="st0" d="M439.5,287.7h-89.8v-89.8c0-16-12.9-28.9-28.9-28.9s-28.9,12.9-28.9,28.9v89.8H202c-16,0-28.9,12.9-28.9,28.9
		s12.9,28.9,28.9,28.9h89.9v7.4v82.4c0,9.1,4.3,17.3,10.9,22.6c4.9,4,11.2,6.3,18,6.3c15.9,0,28.9-12.9,28.9-28.9v-89.8h7.3h82.5
		c9.1,0,17.3-4.3,22.6-10.9c4-4.9,6.3-11.2,6.3-18C468.4,300.6,455.4,287.7,439.5,287.7z"/>
</svg>
